<?xml version="1.0" encoding="UTF-8"?>
<svg id="Calque_1" data-name="Calque 1" xmlns="http://www.w3.org/2000/svg" viewBox="0 0 636 165.14">
  <defs>
    <style>
      .cls-1 {
        fill: #5fb562;
        stroke-width: 0px;
      }
    </style>
  </defs>
  <path class="cls-1" d="m59.9,161.13H0V5.25h59.9c21.38,0,39.49,7.31,54.34,21.94,14.84,14.62,22.27,33.22,22.27,55.78s-7.43,41.24-22.27,56.01c-14.85,14.77-32.96,22.16-54.34,22.16Zm-2.23-132.28H24.5v108.67h33.18c15.14,0,27.98-5.12,38.53-15.37,10.54-10.24,15.81-23.31,15.81-39.19s-5.27-28.69-15.81-38.86c-10.54-10.17-23.38-15.25-38.53-15.25Z"/>
  <path class="cls-1" d="m221.58,113.03l-27.39,3.56c-11.73,1.34-17.59,5.64-17.59,12.92,0,4.01,1.59,7.09,4.79,9.24,3.19,2.15,7.61,3.23,13.25,3.23,8.16,0,14.7-2.26,19.6-6.79,4.9-4.53,7.35-10.43,7.35-17.71h7.79c0,13.22-3.97,24.2-11.91,32.96-7.94,8.76-17.93,13.14-29.95,13.14-10.39,0-18.89-3.01-25.5-9.02-6.61-6.01-9.91-13.77-9.91-23.27s3.3-17.44,9.91-23.83c6.6-6.38,15.48-10.24,26.61-11.58l32.96-3.79v-2.45c0-5.49-2.27-10.17-6.79-14.03-4.53-3.86-9.99-5.79-16.37-5.79-5.79,0-10.99,1.56-15.59,4.68-4.6,3.12-7.5,7.05-8.69,11.8l-22.94-7.57c2.97-9.35,8.72-16.92,17.26-22.71,8.54-5.79,18.15-8.69,28.84-8.69,13.21,0,24.64,4.05,34.29,12.14,9.65,8.09,14.48,17.63,14.48,28.62v73.04h-24.5v-48.1Z"/>
  <path class="cls-1" d="m270.12,63.97v97.16h24.5V54.44c-9.27-.29-21.47.63-24.5,9.53Z"/>
  <path class="cls-1" d="m318.92,150.04V11.82C318.92,5.29,324.29,0,330.92,0h0c6.62,0,11.99,5.29,11.99,11.82v139.32c0,5.52-4.55,10-10.15,10h-2.57c-6.22,0-11.27-4.97-11.27-11.1Z"/>
  <path class="cls-1" d="m367.21,54.24v106.89h24.5V60.91c-7.8-4.49-15.76-6.27-24.5-6.67Z"/>
  <path class="cls-1" d="m437.14,116.15c1.48,8.17,5.27,14.55,11.36,19.15,6.09,4.6,13.43,6.9,22.05,6.9,6.53.15,12.5-1.26,17.93-4.23,5.42-2.97,9.46-7.05,12.14-12.25l22.49,8.68c-4.75,9.35-11.84,16.81-21.27,22.38-9.43,5.57-19.79,8.35-31.07,8.35-16.78,0-30.88-5.68-42.31-17.04-11.43-11.36-17.15-25.72-17.15-43.09s5.57-31.29,16.7-42.65,24.87-17.04,41.2-17.04,30.43,5.64,41.87,16.92c11.43,11.28,17.15,25.39,17.15,42.31,0,3.27-.52,7.13-1.56,11.58h-89.52Zm66.14-22.05c-1.19-8.02-4.86-14.36-11.02-19.04-6.16-4.68-13.62-7.01-22.38-7.01s-15.67,2.3-21.6,6.9c-5.94,4.6-9.65,10.99-11.13,19.15h66.14Z"/>
  <path class="cls-1" d="m588.56,116.15c-28.36-4.3-42.53-15.73-42.53-34.29.15-10.09,4.04-18.45,11.69-25.05,7.64-6.6,17.33-9.91,29.06-9.91,10.39,0,19.85,2.78,28.39,8.35,8.54,5.57,14.66,12.95,18.37,22.16l-23.61,7.57c-1.93-5.2-4.94-9.24-9.02-12.14-4.08-2.9-8.65-4.34-13.7-4.34-4.75,0-8.69,1.19-11.8,3.56-3.12,2.38-4.68,5.34-4.68,8.91s1.71,6.2,5.12,8.35c3.41,2.15,8.98,3.9,16.7,5.23,14.1,2.08,24.87,6.09,32.29,12.03,7.42,5.94,11.13,13.51,11.13,22.71,0,9.95-4.08,18.15-12.25,24.61-8.17,6.46-18.34,9.69-30.51,9.69-11.13,0-21.16-2.67-30.06-8.02-8.91-5.34-15.37-12.54-19.38-21.6l23.38-8.02c2.23,5.34,5.6,9.54,10.13,12.58,4.53,3.04,9.69,4.57,15.48,4.57,5.34,0,9.8-1.22,13.36-3.67,3.56-2.45,5.34-5.6,5.34-9.46,0-3.41-1.82-6.24-5.46-8.46-3.64-2.23-9.46-4.01-17.48-5.34Z"/>
</svg>