<?xml version="1.0" encoding="UTF-8"?>
<svg id="Calque_1" data-name="Calque 1" xmlns="http://www.w3.org/2000/svg" viewBox="0 0 720.79 283.58">
  <defs>
    <style>
      .cls-1 {
        fill: #32a936;
        stroke-width: 0px;
      }
    </style>
  </defs>
  <path class="cls-1" d="m79.27,207.97H13.46V36.7h65.82c23.49,0,43.39,8.04,59.7,24.1,16.31,16.07,24.47,36.5,24.47,61.29s-8.16,45.31-24.47,61.54c-16.31,16.23-36.21,24.34-59.7,24.34Zm-2.45-145.34h-36.46v119.4h36.46c16.64,0,30.74-5.63,42.33-16.88,11.58-11.25,17.37-25.61,17.37-43.06s-5.79-31.52-17.37-42.7c-11.58-11.17-25.69-16.76-42.33-16.76Z"/>
  <path class="cls-1" d="m256.9,155.12l-30.09,3.92c-12.89,1.47-19.33,6.2-19.33,14.19,0,4.4,1.75,7.79,5.26,10.15,3.51,2.37,8.36,3.55,14.56,3.55,8.97,0,16.15-2.49,21.53-7.46,5.38-4.97,8.07-11.46,8.07-19.45h8.56c0,14.52-4.37,26.59-13.09,36.21-8.73,9.63-19.7,14.44-32.91,14.44-11.42,0-20.76-3.3-28.02-9.91-7.26-6.61-10.89-15.13-10.89-25.57s3.63-19.17,10.89-26.18c7.26-7.01,17-11.25,29.24-12.72l36.21-4.16v-2.69c0-6.03-2.49-11.17-7.46-15.42-4.98-4.24-10.97-6.36-17.98-6.36-6.36,0-12.07,1.71-17.13,5.14-5.06,3.42-8.24,7.75-9.54,12.97l-25.2-8.32c3.26-10.28,9.58-18.6,18.96-24.96,9.38-6.36,19.94-9.54,31.69-9.54,14.52,0,27.07,4.45,37.68,13.33,10.6,8.89,15.9,19.37,15.9,31.44v80.25h-26.91v-52.85Z"/>
  <path class="cls-1" d="m311.71,63.12c-3.26-3.26-4.89-7.26-4.89-11.99s1.63-8.72,4.89-11.99c3.26-3.26,7.26-4.89,11.99-4.89s8.72,1.63,11.99,4.89c3.26,3.27,4.89,7.26,4.89,11.99s-1.63,8.73-4.89,11.99c-3.26,3.27-7.26,4.89-11.99,4.89s-8.73-1.63-11.99-4.89Zm-1.47,144.85v-122.34h26.91v122.34h-26.91Z"/>
  <path class="cls-1" d="m363.58,207.97V24.47h26.91v183.51h-26.91Z"/>
  <path class="cls-1" d="m418.38,63.12c-3.26-3.26-4.89-7.26-4.89-11.99s1.63-8.72,4.89-11.99c3.26-3.26,7.26-4.89,11.99-4.89s8.72,1.63,11.99,4.89c3.26,3.27,4.89,7.26,4.89,11.99s-1.63,8.73-4.89,11.99c-3.26,3.27-7.26,4.89-11.99,4.89s-8.73-1.63-11.99-4.89Zm-1.47,144.85v-122.34h26.91v122.34h-26.91Z"/>
  <path class="cls-1" d="m493.74,158.55c1.63,8.97,5.79,15.99,12.48,21.04,6.69,5.06,14.76,7.58,24.22,7.58,7.18.16,13.74-1.38,19.7-4.65,5.95-3.26,10.4-7.75,13.33-13.46l24.71,9.54c-5.22,10.28-13.01,18.47-23.37,24.59-10.36,6.12-21.74,9.18-34.13,9.18-18.43,0-33.93-6.24-46.49-18.72-12.56-12.48-18.84-28.26-18.84-47.34s6.12-34.38,18.35-46.85,27.32-18.72,45.26-18.72,33.44,6.2,46,18.59c12.56,12.4,18.84,27.89,18.84,46.49,0,3.59-.57,7.83-1.71,12.72h-98.36Zm72.67-24.22c-1.31-8.81-5.34-15.78-12.11-20.92-6.77-5.14-14.97-7.71-24.59-7.71s-17.21,2.53-23.73,7.58c-6.53,5.06-10.61,12.07-12.23,21.04h72.67Z"/>
  <path class="cls-1" d="m660.11,158.55c-31.16-4.73-46.73-17.29-46.73-37.68.16-11.09,4.44-20.27,12.84-27.53,8.4-7.26,19.04-10.89,31.93-10.89,11.42,0,21.81,3.06,31.2,9.17,9.38,6.12,16.11,14.23,20.19,24.35l-25.94,8.32c-2.12-5.71-5.42-10.15-9.91-13.33-4.49-3.18-9.5-4.77-15.05-4.77-5.22,0-9.54,1.31-12.97,3.91-3.43,2.61-5.14,5.87-5.14,9.79s1.87,6.81,5.63,9.18c3.75,2.37,9.87,4.28,18.35,5.75,15.49,2.29,27.32,6.69,35.48,13.21,8.15,6.53,12.23,14.84,12.23,24.96,0,10.93-4.49,19.94-13.46,27.04-8.97,7.1-20.15,10.64-33.52,10.64-12.23,0-23.24-2.94-33.03-8.81-9.79-5.87-16.88-13.78-21.29-23.73l25.69-8.81c2.45,5.87,6.16,10.48,11.13,13.82,4.97,3.34,10.64,5.02,17,5.02,5.87,0,10.77-1.35,14.68-4.04s5.87-6.16,5.87-10.4c0-3.75-2-6.85-5.99-9.3-4-2.45-10.4-4.4-19.21-5.87Z"/>
</svg>